<?xml version="1.0" standalone="no"?>
<!DOCTYPE svg PUBLIC "-//W3C//DTD SVG 20010904//EN"
 "http://www.w3.org/TR/2001/REC-SVG-20010904/DTD/svg10.dtd">
<svg version="1.0" xmlns="http://www.w3.org/2000/svg"
 width="620.000000pt" height="324.000000pt" viewBox="0 0 620.000000 324.000000"
 preserveAspectRatio="xMidYMid meet">

<g transform="translate(0.000000,324.000000) scale(0.100000,-0.100000)"
fill="#000000" stroke="none">
<path d="M2763 2671 c-140 -48 -279 -193 -467 -488 l-78 -123 -69 0 c-54 0
-69 -3 -69 -15 0 -10 16 -15 60 -17 l59 -3 -157 -255 c-247 -400 -338 -526
-467 -648 -139 -131 -282 -189 -408 -162 -85 17 -146 94 -147 183 0 72 57 147
113 147 9 0 17 5 17 11 0 8 -20 10 -59 7 -81 -6 -125 -39 -146 -112 -20 -67
-7 -126 37 -180 107 -130 386 -120 593 21 176 119 355 351 635 821 l103 172
208 0 c179 0 209 2 209 15 0 13 -28 15 -195 15 -118 0 -195 4 -195 10 0 18
182 305 251 397 103 135 178 193 252 193 59 0 72 -18 70 -99 -2 -64 -1 -71 16
-71 11 0 31 14 45 31 28 33 34 85 15 121 -25 47 -133 62 -226 29z"/>
<path d="M4485 2100 c-4 -7 175 -10 530 -10 355 0 534 3 530 10 -4 6 -192 10
-530 10 -338 0 -526 -4 -530 -10z"/>
<path d="M4293 2060 c-36 -34 -48 -40 -87 -40 -25 0 -68 9 -96 20 -160 63
-243 41 -315 -82 -38 -63 -39 -95 -2 -43 12 17 36 45 54 64 31 31 37 33 75 27
23 -4 56 -13 72 -21 55 -25 110 -34 154 -26 23 5 42 7 42 6 0 -5 -218 -177
-400 -315 -219 -167 -250 -192 -250 -207 0 -22 20 -14 67 25 61 49 110 49 209
-1 38 -19 86 -37 107 -41 l37 -7 0 -54 0 -55 -46 0 c-27 0 -43 -4 -39 -10 3
-5 24 -10 45 -10 l38 0 4 -156 3 -156 28 -24 c30 -26 109 -34 123 -13 4 8 -3
9 -25 4 -43 -9 -86 10 -100 44 -7 16 -11 78 -9 161 l3 135 58 3 c76 4 73 22
-3 22 l-61 0 3 57 c3 56 4 57 38 66 81 21 256 168 353 297 50 66 118 180 108
180 -5 0 -40 -44 -77 -97 -84 -120 -232 -271 -295 -301 -62 -30 -97 -28 -171
10 -56 28 -73 32 -148 32 l-85 1 75 54 c260 186 580 451 580 480 0 21 -25 10
-67 -29z"/>
<path d="M2986 2069 c-108 -25 -266 -153 -351 -284 -46 -70 -85 -172 -85 -221
0 -126 104 -176 230 -110 30 16 83 53 117 82 l62 54 -6 -52 c-4 -46 -2 -57 18
-79 66 -75 189 -33 340 115 64 62 156 172 208 246 14 19 34 47 45 62 11 15 17
30 14 33 -3 4 -39 -38 -79 -92 -144 -193 -349 -373 -425 -373 -68 0 -53 86 41
230 12 19 43 67 68 105 26 39 76 113 112 165 36 52 65 98 65 102 0 5 -27 8
-60 8 -33 0 -60 -3 -60 -7 0 -5 -11 -26 -24 -47 l-24 -39 -25 40 c-20 31 -37
45 -73 57 -53 18 -53 18 -108 5z m108 -41 c33 -30 38 -65 20 -136 -39 -148
-195 -340 -329 -403 -51 -24 -70 -24 -95 1 -37 37 -21 159 35 271 55 109 187
243 271 273 54 20 69 19 98 -6z"/>
<path d="M4900 1361 c0 -72 -3 -131 -6 -131 -3 0 -15 12 -27 26 -43 56 -139
71 -198 31 -70 -47 -97 -121 -79 -217 18 -93 71 -140 159 -140 51 0 81 12 111
44 33 34 40 33 40 -9 0 -19 5 -35 10 -35 6 0 10 98 10 274 0 173 -4 277 -10
281 -6 4 -10 -40 -10 -124z m-62 -99 c34 -25 62 -94 62 -152 0 -45 -37 -118
-73 -144 -20 -14 -44 -21 -77 -21 -60 0 -96 24 -128 86 -43 81 -13 206 58 242
45 23 116 18 158 -11z"/>
<path d="M5075 1440 c-4 -6 -3 -16 3 -22 6 -6 12 -6 17 2 4 6 3 16 -3 22 -6 6
-12 6 -17 -2z"/>
<path d="M3623 1295 c-38 -16 -53 -42 -53 -88 0 -48 26 -68 128 -97 69 -20 89
-30 101 -51 12 -22 12 -32 2 -56 -16 -40 -53 -58 -117 -57 -41 0 -60 6 -89 28
-44 34 -63 24 -20 -10 36 -29 79 -38 146 -32 68 7 99 36 99 94 0 52 -25 80
-85 94 -129 32 -145 42 -145 94 0 43 27 67 82 73 39 5 71 -4 131 -35 4 -2 5 3
2 11 -16 40 -121 59 -182 32z"/>
<path d="M4188 1304 c-11 -10 -9 -218 1 -273 5 -25 20 -54 35 -70 24 -23 34
-26 100 -26 63 0 78 3 98 23 32 29 48 28 48 -3 0 -14 3 -25 8 -25 4 0 6 84 5
187 -1 104 -5 187 -9 185 -3 -1 -6 -50 -5 -110 2 -171 -18 -216 -109 -243 -33
-10 -47 -9 -83 5 -62 23 -70 46 -76 214 -3 79 -9 140 -13 136z"/>
<path d="M5078 1304 c-5 -4 -8 -90 -8 -191 0 -140 3 -183 13 -183 9 0 11 31 9
127 -4 210 -7 255 -14 247z"/>
<path d="M5310 1299 c-81 -32 -122 -128 -100 -233 11 -56 53 -110 98 -127 30
-12 104 -12 134 0 71 27 120 136 99 224 -6 27 -20 62 -32 78 -41 57 -133 84
-199 58z m153 -35 c60 -44 81 -174 41 -245 -25 -45 -102 -84 -147 -75 -82 16
-137 86 -136 176 0 63 35 130 79 153 44 23 126 19 163 -9z"/>
<path d="M1652 928 c4 -10 200 -14 930 -16 817 -2 927 0 932 13 5 13 -101 15
-930 15 -744 0 -935 -3 -932 -12z"/>
</g>
</svg>
